<svg width="30" height="35" viewBox="0 0 30 35" fill="none" xmlns="http://www.w3.org/2000/svg">
<path d="M3.8123 32.7267C3.8123 33.6934 3.07128 34.4344 1.84524 34.4344H0.848244C0.450792 34.4344 0.221756 34.2054 0.221756 33.8652V31.0156C0.221756 30.6755 0.450792 30.4464 0.848244 30.4464H1.84524C3.07128 30.4464 3.8123 31.1874 3.8123 32.1541V32.7233V32.7267ZM1.47474 31.4737V33.4105H1.84524C2.24269 33.4105 2.529 33.1242 2.529 32.7267V32.1575C2.529 31.76 2.24269 31.4737 1.84524 31.4737H1.47474Z" fill="#997DB8"/>
<path d="M4.40847 32.8986V30.9618C4.40847 30.6216 4.63751 30.3926 5.03496 30.3926C5.43241 30.3926 5.66146 30.6216 5.66146 30.9618V32.8986C5.66146 33.296 5.8905 33.525 6.23069 33.525C6.57088 33.525 6.79992 33.296 6.79992 32.8986V30.9618C6.79992 30.6216 7.02896 30.3926 7.42641 30.3926C7.82387 30.3926 8.05291 30.6216 8.05291 30.9618V32.8986C8.05291 33.8686 7.36916 34.5524 6.23069 34.5524C5.09222 34.5524 4.40847 33.8686 4.40847 32.8986Z" fill="#997DB8"/>
<path d="M8.65582 32.043C8.65582 31.073 9.39684 30.3353 10.5656 30.3353C11.5626 30.3353 12.1319 30.9046 12.1319 31.302C12.1319 31.6153 11.9331 31.814 11.5054 31.814C11.0507 31.814 10.9934 31.4165 10.5656 31.4165C10.1951 31.4165 9.93913 31.6725 9.93913 32.043V32.8413C9.93913 33.2118 10.1951 33.4678 10.5656 33.4678C11.0506 33.4678 11.1079 33.0703 11.5626 33.0703C11.9904 33.0703 12.1891 33.2691 12.1891 33.5823C12.1891 33.9798 11.6199 34.549 10.5656 34.549C9.39684 34.549 8.65582 33.808 8.65582 32.8413V32.043Z" fill="#997DB8"/>
<path d="M13.8699 33.2691V33.9259C13.8699 34.2661 13.6408 34.4951 13.2434 34.4951C12.8459 34.4951 12.6169 34.2661 12.6169 33.9259V30.9618C12.6169 30.6216 12.8459 30.3926 13.2434 30.3926C13.6408 30.3926 13.8699 30.6216 13.8699 30.9618V31.7601L15.1228 30.5644C15.1228 30.5644 15.2946 30.3926 15.5776 30.3926C15.9177 30.3926 16.1468 30.6216 16.1468 30.9618C16.1468 31.2481 15.9178 31.4165 15.9178 31.4165L15.1195 32.1845L16.0895 33.4105C16.0895 33.4105 16.3186 33.6968 16.3186 33.9225C16.3186 34.2627 16.0895 34.4917 15.6921 34.4917C15.3788 34.4917 15.1498 34.2054 15.1498 34.2054L14.1797 32.9794L13.8665 33.2657L13.8699 33.2691Z" fill="#997DB8"/>
<path d="M20.9061 33.296C21.3036 33.296 21.5326 33.525 21.5326 33.8686C21.5326 34.2122 21.3036 34.4378 20.9061 34.4378H18.9121C18.5113 34.4378 18.2856 34.2088 18.2856 33.8686V30.9618C18.2856 30.6216 18.5147 30.3926 18.9121 30.3926C19.3096 30.3926 19.5386 30.6216 19.5386 30.9618V33.296H20.9061Z" fill="#997DB8"/>
<path d="M23.0416 33.9259C22.9001 34.2661 22.6711 34.4951 22.3578 34.4951C21.9873 34.4951 21.7313 34.2391 21.7313 33.9259C21.7313 33.7541 21.8728 33.4139 21.8728 33.4139L22.7856 31.0191C22.9574 30.5913 23.2134 30.3353 23.7826 30.3353C24.3518 30.3353 24.6146 30.5913 24.7796 31.0191L25.6924 33.4139C25.6924 33.4139 25.8339 33.7541 25.8339 33.9259C25.8339 34.2391 25.5779 34.4951 25.2074 34.4951C24.8941 34.4951 24.6651 34.2661 24.5236 33.9259L24.3821 33.5857H23.1864L23.045 33.9259H23.0416ZM24.1262 32.555L23.8129 31.6995H23.7557L23.4424 32.555H24.1262Z" fill="#997DB8"/>
<path d="M27.9727 30.4464C29.1684 30.4464 29.6265 30.9011 29.6265 31.5007C29.6265 32.1002 29 32.2686 29 32.2686V32.3259C29 32.3259 29.8556 32.4977 29.8556 33.2656C29.8556 33.9224 29.3436 34.4344 28.1479 34.4344H26.8376C26.4402 34.4344 26.2111 34.2054 26.2111 33.8652V31.0156C26.2179 30.6755 26.4402 30.4464 26.8376 30.4464H27.9761H27.9727ZM27.4574 31.9284H27.9693C28.1984 31.9284 28.3095 31.8139 28.3095 31.6725C28.3095 31.531 28.195 31.4165 27.9693 31.4165H27.4574V31.9284ZM27.4574 33.4677H28.1411C28.3971 33.4677 28.5386 33.3263 28.5386 33.1545C28.5386 32.9827 28.3971 32.8412 28.1411 32.8412H27.4574V33.4677Z" fill="#997DB8"/>
<path d="M24.3619 6.91248C24.3619 6.91248 25.3859 7.33014 26.0663 7.37729C26.7433 7.42782 27.8885 6.76764 28.2152 7.36382C28.5857 8.04421 27.3563 8.89974 26.0663 9.37803C24.9985 9.77211 23.8533 9.85632 23.8533 9.85632" fill="#997DB8"/>
<g opacity="0.5">
<path d="M10.4881 16.5321L11.1921 15.1747C11.1921 15.1747 7.67229 16.751 6.42941 16.421C4.56003 15.9258 4.05816 13.5209 3.48893 13.9116C2.83886 14.3596 3.92681 16.2088 3.92681 16.2088C3.92681 16.2088 4.24341 16.7207 4.70823 17.418C4.54656 17.418 4.38825 17.418 4.22995 17.4079C2.22584 17.29 1.39725 15.232 0.868437 15.7608C0.363201 16.2694 1.87891 18.0579 1.87891 18.0579C1.87891 18.0579 9.61913 27.846 16.8676 26.6672L10.4915 16.5321H10.4881Z" fill="#997DB8"/>
</g>
<path d="M21.0206 12.7328C23.2875 11.7156 24.8672 9.43862 24.8672 6.79455C24.8672 3.20064 21.9536 0.287109 18.3597 0.287109C14.7658 0.287109 11.8556 3.20064 11.8556 6.79455C11.8556 8.71445 12.6876 10.439 14.0113 11.6313C12.8257 12.0221 11.7647 12.689 10.9058 13.558C10.5117 13.8611 10.0334 14.2956 9.44736 14.9221C7.17043 17.3506 4.83287 17.418 4.75877 17.418C4.68804 17.418 8.6154 23.9052 11.7714 25.4479C13.0716 26.4247 14.6883 26.8053 16.4432 26.8053C20.7411 26.8053 24.2238 23.3225 24.2238 19.0246C24.2238 16.4412 22.9641 14.1508 21.024 12.7361L21.0206 12.7328Z" fill="#997DB8"/>
</svg>
