<svg width="76" height="86" viewBox="0 0 76 86" fill="none" xmlns="http://www.w3.org/2000/svg">
<path d="M9.88047 81.4211C9.88047 83.8434 8.02259 85.7161 4.93972 85.7161H2.42851C1.42811 85.7161 0.856445 85.1461 0.856445 84.2912V77.1465C0.856445 76.2916 1.42811 75.7217 2.42851 75.7217H4.93972C8.02259 75.7217 9.88047 77.574 9.88047 80.0166V81.4415V81.4211ZM4.00058 78.2661V83.131H4.93972C5.94012 83.131 6.65468 82.4185 6.65468 81.4211V79.9963C6.65468 78.9989 5.94012 78.2864 4.93972 78.2864H4.00058V78.2661Z" fill="#5F5F5F"/>
<path d="M11.3914 81.8474V76.9825C11.3914 76.1276 11.9631 75.5576 12.9635 75.5576C13.9639 75.5576 14.5355 76.1276 14.5355 76.9825V81.8474C14.5355 82.8448 15.1072 83.4147 15.9647 83.4147C16.8222 83.4147 17.3938 82.8448 17.3938 81.8474V76.9825C17.3938 76.1276 17.9655 75.5576 18.9659 75.5576C19.9663 75.5576 20.5379 76.1276 20.5379 76.9825V81.8474C20.5379 84.29 18.823 85.9998 15.9443 85.9998C13.0656 85.9998 11.3506 84.29 11.3506 81.8474H11.3914Z" fill="#5F5F5F"/>
<path d="M22.0693 79.6905C22.0693 77.2478 23.9272 75.3955 26.8672 75.3955C29.3784 75.3955 30.8075 76.8204 30.8075 77.8178C30.8075 78.6116 30.2971 79.1002 29.2355 79.1002C28.0922 79.1002 27.9493 78.1028 26.8672 78.1028C25.928 78.1028 25.2951 78.7541 25.2951 79.6701V81.6649C25.2951 82.6013 25.9485 83.2323 26.8672 83.2323C28.0922 83.2323 28.2351 82.2349 29.3784 82.2349C30.4605 82.2349 30.9505 82.7234 30.9505 83.5172C30.9505 84.5147 29.5213 85.9395 26.8672 85.9395C23.9272 85.9395 22.0693 84.0872 22.0693 81.6446V79.6498V79.6905Z" fill="#5F5F5F"/>
<path d="M35.1969 82.7642V84.413C35.1969 85.2679 34.6252 85.8378 33.6248 85.8378C32.6244 85.8378 32.0527 85.2679 32.0527 84.413V76.9833C32.0527 76.1284 32.6244 75.5584 33.6248 75.5584C34.6252 75.5584 35.1969 76.1284 35.1969 76.9833V78.9781L38.3614 75.9656C38.3614 75.9656 38.7902 75.5381 39.5047 75.5381C40.3622 75.5381 40.9339 76.108 40.9339 76.963C40.9339 77.6754 40.3622 78.1028 40.3622 78.1028L38.3614 80.0366L40.7909 83.1102C40.7909 83.1102 41.3626 83.8227 41.3626 84.3926C41.3626 85.2475 40.791 85.8175 39.7906 85.8175C38.9943 85.8175 38.4227 85.105 38.4227 85.105L35.9931 82.0314L35.1969 82.7438V82.7642Z" fill="#5F5F5F"/>
<path d="M52.9187 82.8448C53.9191 82.8448 54.4908 83.4147 54.4908 84.2696C54.4908 85.1246 53.9191 85.6945 52.9187 85.6945H47.8963C46.8959 85.6945 46.3242 85.1246 46.3242 84.2696V76.9825C46.3242 76.1276 46.8959 75.5576 47.8963 75.5576C48.8967 75.5576 49.4683 76.1276 49.4683 76.9825V82.8448H52.9187Z" fill="#5F5F5F"/>
<path d="M58.288 84.412C57.9205 85.267 57.3489 85.8369 56.573 85.8369C55.6339 85.8369 55.001 85.1855 55.001 84.412C55.001 83.9846 55.3685 83.1297 55.3685 83.1297L57.6551 77.1249C58.0839 76.0461 58.7372 75.415 60.1663 75.415C61.5955 75.415 62.2692 76.0664 62.6775 77.1249L64.9642 83.1297C64.9642 83.1297 65.3112 83.9846 65.3112 84.412C65.3112 85.2059 64.6579 85.8369 63.7392 85.8369C62.9429 85.8369 62.3713 85.267 62.0242 84.412L61.6567 83.5571H58.6351L58.2676 84.412H58.288ZM61.0238 80.9924L60.2276 78.8347H60.0846L59.2884 80.9924H61.0034H61.0238Z" fill="#5F5F5F"/>
<path d="M70.7008 75.7002C73.7224 75.7002 74.8657 76.8401 74.8657 78.3464C74.8657 79.8527 73.2936 80.2801 73.2936 80.2801V80.4226C73.2936 80.4226 75.4374 80.8501 75.4374 82.7838C75.4374 84.4326 74.1511 85.715 71.1295 85.715H67.8221C66.8217 85.715 66.25 85.145 66.25 84.2901V77.1454C66.25 76.2905 66.8217 75.7206 67.8221 75.7206H70.7008V75.7002ZM69.4145 79.4048H70.7008C71.2724 79.4048 71.5583 79.1199 71.5583 78.7535C71.5583 78.3871 71.2724 78.1021 70.7008 78.1021H69.4145V79.3845V79.4048ZM69.4145 83.2723H71.1295C71.7828 83.2723 72.1299 82.9263 72.1299 82.4785C72.1299 82.0307 71.7828 81.6846 71.1295 81.6846H69.4145V83.252V83.2723Z" fill="#5F5F5F"/>
<path d="M61.6153 16.6094C61.6153 16.6094 64.1878 17.6475 65.9028 17.7696C67.6177 17.8918 70.4964 16.243 71.3131 17.7289C72.2522 19.4387 69.149 21.576 65.9028 22.777C63.2078 23.7744 60.3291 23.978 60.3291 23.978" fill="#5F5F5F"/>
<g opacity="0.5">
<path d="M26.6831 40.7712L28.4593 37.3516C28.4593 37.3516 19.5986 41.3005 16.4749 40.4863C11.7791 39.2446 10.5133 33.1991 9.06374 34.1965C7.43043 35.316 10.1662 39.957 10.1662 39.957C10.1662 39.957 10.9625 41.2394 12.1262 42.99C11.7179 42.99 11.3095 42.99 10.9216 42.9696C5.8788 42.6643 3.79633 37.5144 2.46927 38.8375C1.20345 40.1199 5.00088 44.598 5.00088 44.598C5.00088 44.598 24.4985 69.1667 42.7507 66.2152L26.7035 40.7712H26.6831Z" fill="#5F5F5F"/>
</g>
<path d="M53.2039 31.2249C58.9205 28.6805 62.8813 22.9607 62.8813 16.3249C62.8813 7.30752 55.5518 0 46.5074 0C37.4629 0 30.1334 7.30752 30.1334 16.3249C30.1334 21.1491 32.2363 25.4847 35.5642 28.4566C32.5834 29.4336 29.9089 31.1028 27.7447 33.3011C26.7443 34.0543 25.5398 35.1534 24.0698 36.7208C18.3328 42.8274 12.4529 42.9902 12.2691 42.9902C12.0854 42.9902 21.9669 59.2744 29.9293 63.1418C33.1959 65.6048 37.2792 66.5412 41.6891 66.5412C52.5098 66.5412 61.2684 57.8088 61.2684 47.0205C61.2684 40.5272 58.1039 34.787 53.2039 31.2452V31.2249Z" fill="#5F5F5F"/>
</svg>
