<svg width="36" height="37" viewBox="0 0 36 37" fill="none" xmlns="http://www.w3.org/2000/svg">
<g clip-path="url(#clip0_597_1041)">
<path d="M29.4417 20.7935C28.682 19.8602 27.807 19.0335 26.871 18.2789C25.935 17.5245 24.937 16.8425 23.9324 16.2025C24.779 15.0155 26.2254 13.9952 27.5497 13.3572C28.9244 12.6952 31.3267 12.6779 31.2447 10.6785C31.2134 9.91021 30.7854 9.21921 30.0637 8.90554C29.3524 8.59721 28.588 8.86088 27.891 9.07454C25.3824 9.84421 23.1764 11.2599 21.342 13.1225C22.262 10.4192 24.3837 7.94188 26.5044 6.03721C27.283 5.33788 28.354 4.67854 29.0404 4.00288C30.1344 2.92554 29.686 1.04188 28.1614 0.685876C27.138 0.446876 26.5124 1.01221 25.7407 1.57988C22.588 3.89721 19.2887 7.71188 17.7707 11.3242C17.4577 12.0679 17.2557 12.8562 16.9297 13.5949H16.929C12.418 12.8852 7.38938 14.1095 4.93404 18.2995C3.36904 20.9705 3.76271 24.4952 5.71838 26.8349C6.11471 27.3099 6.57604 27.7359 7.09804 28.0962C7.28071 28.2222 7.61104 28.3782 7.97471 28.5379C8.13738 28.5902 8.29571 28.6585 8.44704 28.7409C8.44838 28.7419 8.44971 28.7425 8.45104 28.7435C8.57304 28.8105 8.69038 28.8865 8.80171 28.9725C9.08104 29.1865 9.32338 29.4572 9.51004 29.7805C9.69638 30.1035 9.80971 30.4485 9.85571 30.7965C9.86471 30.8622 9.87071 30.9285 9.87438 30.9945C9.88104 31.1062 9.88104 31.2172 9.87338 31.3285C9.87504 31.7252 9.89271 32.1079 9.97671 32.4079C10.1564 33.0449 10.4297 33.6099 10.7764 34.1005C12.4044 36.4069 15.647 37.0922 18.375 36.0852C20.189 35.4145 24.1957 32.9865 21.8424 30.8099C20.2434 29.3302 18.7824 31.6289 17.4174 32.2715C16.8824 32.5235 16.2317 32.6835 15.6117 32.6489C15.6047 32.6489 15.5964 32.6489 15.5887 32.6479C15.4704 32.6405 15.3537 32.6262 15.2394 32.6035C14.738 32.4922 14.2834 32.1789 14.0064 31.6992C13.8324 31.3979 13.7504 31.0695 13.7524 30.7445C13.76 30.6492 13.7697 30.5505 13.776 30.4472C13.7834 30.3375 13.788 30.2232 13.7854 30.1029C13.8457 29.2262 13.654 28.3222 13.1814 27.5042C12.6097 26.5142 11.7244 25.8182 10.723 25.4695C10.7197 25.4682 10.7167 25.4669 10.7134 25.4655C10.6967 25.4592 10.68 25.4525 10.664 25.4465C10.662 25.4459 10.6604 25.4455 10.659 25.4445C10.551 25.4032 10.4457 25.3659 10.3424 25.3285C10.3397 25.3285 10.3387 25.3275 10.3374 25.3265C9.60104 25.0199 8.95638 24.4779 8.52704 23.7339C7.75404 22.3952 7.89571 20.7799 8.75704 19.6102C8.75804 19.6089 8.75871 19.6075 8.76004 19.6069C8.91271 19.4249 9.08104 19.2529 9.26371 19.0919C9.48138 18.8995 9.70471 18.7255 9.93404 18.5682C9.93404 18.5672 9.93538 18.5665 9.93638 18.5669C11.858 17.2452 14.1684 17.0922 16.4657 17.5235C16.619 17.6792 16.6164 19.2312 16.6684 19.6082C17.252 23.8099 19.804 29.6392 23.863 31.4812C26.4327 32.6469 29.9174 31.9845 31.357 29.4062C32.9964 26.4675 31.3694 23.1605 29.4424 20.7942L29.4417 20.7935ZM25.2797 27.8392C23.918 27.1409 22.6764 25.2365 22.011 23.8975C21.9867 23.8482 21.9614 23.7975 21.9364 23.7462C21.8864 23.6442 21.835 23.5389 21.7847 23.4305C21.7594 23.3769 21.7344 23.3222 21.7097 23.2672C21.6634 23.1662 21.619 23.0642 21.5757 22.9599C21.5704 22.9462 21.5647 22.9325 21.559 22.9199C21.5377 22.8679 21.517 22.8149 21.496 22.7619C21.4954 22.7592 21.494 22.7559 21.4927 22.7532C21.4754 22.7079 21.4587 22.6622 21.4417 22.6162C21.4304 22.5865 21.42 22.5565 21.4097 22.5272C21.4007 22.5002 21.391 22.4729 21.382 22.4459C21.3777 22.4339 21.3737 22.4219 21.37 22.4095C21.3604 22.3805 21.351 22.3515 21.3417 22.3215C21.325 22.2675 21.3087 22.2145 21.2944 22.1602C21.275 22.0935 21.2574 22.0265 21.2414 21.9602C21.2364 21.9365 21.2314 21.9139 21.226 21.8905C21.2244 21.8819 21.222 21.8735 21.221 21.8652C21.209 21.8112 21.1987 21.7569 21.1894 21.7019C21.184 21.6745 21.1797 21.6462 21.1757 21.6182C21.1707 21.5872 21.1667 21.5569 21.1634 21.5259L21.1534 21.4375C21.1484 21.3842 21.1447 21.3309 21.1424 21.2775C21.1417 21.2709 21.142 21.2642 21.1417 21.2569C21.1407 21.2302 21.1404 21.2029 21.14 21.1759C21.1314 20.2395 22.2017 19.6992 22.9714 20.2279C22.992 20.2425 23.0127 20.2562 23.033 20.2709C23.095 20.3145 23.1577 20.3589 23.221 20.4042C23.2844 20.4495 23.3477 20.4959 23.411 20.5429C23.442 20.5659 23.4744 20.5899 23.5064 20.6132C23.5384 20.6365 23.5707 20.6605 23.6024 20.6849C23.6347 20.7089 23.6667 20.7335 23.699 20.7575C23.7957 20.8302 23.8927 20.9052 23.99 20.9815C24.0874 21.0569 24.1844 21.1345 24.2814 21.2135C24.3467 21.2659 24.4114 21.3192 24.4764 21.3732C24.5084 21.3995 24.541 21.4265 24.5727 21.4542C24.6377 21.5082 24.7024 21.5632 24.7664 21.6185C24.799 21.6462 24.831 21.6735 24.8627 21.7019C24.895 21.7299 24.9267 21.7582 24.9587 21.7862C24.991 21.8142 25.0227 21.8425 25.054 21.8709C25.0854 21.8992 25.1177 21.9282 25.1494 21.9565C25.212 22.0135 25.274 22.0709 25.336 22.1282C25.3987 22.1869 25.4617 22.2469 25.5234 22.3069C25.5547 22.3362 25.5854 22.3659 25.6157 22.3959C25.6767 22.4555 25.737 22.5155 25.797 22.5762C25.844 22.6229 25.8907 22.6699 25.9357 22.7179C25.9634 22.7462 25.9904 22.7749 26.0167 22.8029C26.0324 22.8189 26.0474 22.8349 26.062 22.8505C26.1147 22.9052 26.166 22.9609 26.2157 23.0165C26.2504 23.0542 26.285 23.0922 26.3184 23.1302C26.3584 23.1745 26.3984 23.2199 26.437 23.2649C26.4404 23.2692 26.444 23.2729 26.4474 23.2772C26.4744 23.3089 26.502 23.3412 26.5294 23.3735C26.541 23.3869 26.552 23.4005 26.5634 23.4142C26.58 23.4335 26.5964 23.4532 26.6124 23.4725C26.6414 23.5072 26.67 23.5429 26.698 23.5779C26.7314 23.6189 26.7637 23.6595 26.7957 23.7012C26.804 23.7115 26.813 23.7225 26.8207 23.7332C26.857 23.7795 26.8924 23.8269 26.9274 23.8732C26.9337 23.8815 26.9407 23.8905 26.947 23.8989C26.9817 23.9462 27.016 23.9932 27.0497 24.0405C27.0527 24.0445 27.0557 24.0482 27.0584 24.0525C27.0907 24.0972 27.1217 24.1429 27.1524 24.1879C27.1564 24.1935 27.161 24.1999 27.1644 24.2059C27.2 24.2575 27.2347 24.3099 27.2684 24.3625C27.2734 24.3699 27.2777 24.3772 27.2824 24.3842C27.308 24.4249 27.334 24.4652 27.359 24.5062C27.3667 24.5179 27.374 24.5305 27.3807 24.5425C27.409 24.5889 27.4364 24.6349 27.4634 24.6812C27.553 24.8365 27.635 24.9925 27.7087 25.1492C27.7824 25.3059 27.8474 25.4629 27.903 25.6195C27.917 25.6589 27.9304 25.6975 27.9427 25.7372C27.981 25.8549 28.0137 25.9725 28.0404 26.0899C28.0764 26.2465 28.1014 26.4025 28.115 26.5585C28.2627 28.2069 26.449 28.4385 25.2797 27.8389V27.8392Z" fill="#FE481C"/>
</g>
<defs>
<clipPath id="clip0_597_1041">
<rect width="36" height="36" fill="white" transform="translate(0 0.58252)"/>
</clipPath>
</defs>
</svg>
