<svg width="48" height="48" viewBox="0 0 48 48" fill="none" xmlns="http://www.w3.org/2000/svg">
<path d="M39.2555 26.948C38.2426 25.7036 37.076 24.6013 35.828 23.5951C34.58 22.5893 33.2493 21.68 31.9098 20.8267C33.0386 19.244 34.9671 17.8836 36.7329 17.0329C38.5658 16.1502 41.7689 16.1271 41.6595 13.4613C41.6178 12.4369 41.0471 11.5156 40.0849 11.0973C39.1364 10.6862 38.1173 11.0378 37.188 11.3227C33.8431 12.3489 30.9018 14.2365 28.456 16.72C29.6826 13.1156 32.5115 9.81246 35.3391 7.2729C36.3773 6.34045 37.8053 5.46134 38.7204 4.56046C40.1791 3.12401 39.5813 0.612455 37.5484 0.137788C36.184 -0.180878 35.3498 0.572899 34.3209 1.32979C30.1173 4.41957 25.7182 9.50579 23.6942 14.3222C23.2769 15.3138 23.0075 16.3649 22.5729 17.3498H22.572C16.5573 16.4036 9.85242 18.036 6.57864 23.6227C4.49198 27.184 5.01687 31.8836 7.62442 35.0031C8.15287 35.6365 8.76798 36.2045 9.46398 36.6849C9.70753 36.8529 10.148 37.0609 10.6329 37.2738C10.8498 37.3436 11.0609 37.4347 11.2626 37.5445C11.2644 37.5458 11.2662 37.5467 11.268 37.548C11.4306 37.6373 11.5871 37.7387 11.7355 37.8533C12.108 38.1387 12.4311 38.4996 12.68 38.9307C12.9284 39.3613 13.0795 39.8213 13.1409 40.2853C13.1529 40.3729 13.1609 40.4613 13.1658 40.5493C13.1746 40.6982 13.1746 40.8462 13.1644 40.9947C13.1666 41.5236 13.1902 42.0338 13.3022 42.4338C13.5418 43.2831 13.9062 44.0365 14.3684 44.6907C16.5391 47.7658 20.8626 48.6796 24.5 47.3369C26.9186 46.4427 32.2609 43.2053 29.1231 40.3031C26.9911 38.3302 25.0431 41.3951 23.2231 42.252C22.5098 42.588 21.6422 42.8013 20.8155 42.7551C20.8062 42.7551 20.7951 42.7551 20.7849 42.7538C20.6271 42.744 20.4715 42.7249 20.3191 42.6947C19.6506 42.5462 19.0444 42.1285 18.6751 41.4889C18.4431 41.0871 18.3338 40.6493 18.3364 40.216C18.3466 40.0889 18.3595 39.9573 18.368 39.8196C18.3778 39.6733 18.384 39.5209 18.3804 39.3605C18.4609 38.1916 18.2053 36.9862 17.5751 35.8956C16.8129 34.5756 15.6324 33.6476 14.2973 33.1827C14.2929 33.1809 14.2889 33.1791 14.2844 33.1773C14.2622 33.1689 14.24 33.16 14.2186 33.152C14.216 33.1511 14.2138 33.1507 14.212 33.1493C14.068 33.0942 13.9275 33.0445 13.7898 32.9947C13.7862 32.9947 13.7849 32.9933 13.7831 32.992C12.8013 32.5831 11.9418 31.8605 11.3693 30.8685C10.3386 29.0836 10.5275 26.9298 11.676 25.3702C11.6773 25.3685 11.6782 25.3667 11.68 25.3658C11.8835 25.1231 12.108 24.8938 12.3515 24.6791C12.6418 24.4227 12.9395 24.1907 13.2453 23.9809C13.2453 23.9796 13.2471 23.9787 13.2484 23.9791C15.8106 22.2169 18.8911 22.0129 21.9542 22.588C22.1586 22.7956 22.1551 24.8649 22.2244 25.3676C23.0026 30.9698 26.4053 38.7422 31.8173 41.1982C35.2435 42.7525 39.8898 41.8693 41.8093 38.4316C43.9951 34.5133 41.8258 30.104 39.2564 26.9489L39.2555 26.948ZM33.7062 36.3422C31.8906 35.4111 30.2351 32.872 29.348 31.0867C29.3155 31.0209 29.2818 30.9533 29.2484 30.8849C29.1818 30.7489 29.1133 30.6085 29.0462 30.464C29.0124 30.3925 28.9791 30.3196 28.9462 30.2462C28.8844 30.1116 28.8253 29.9756 28.7675 29.8365C28.7604 29.8182 28.7529 29.8 28.7453 29.7831C28.7169 29.7138 28.6893 29.6431 28.6613 29.5725C28.6604 29.5689 28.6586 29.5645 28.6569 29.5609C28.6338 29.5005 28.6115 29.4396 28.5889 29.3782C28.5738 29.3387 28.56 29.2987 28.5462 29.2596C28.5342 29.2236 28.5213 29.1871 28.5093 29.1511C28.5035 29.1351 28.4982 29.1191 28.4933 29.1027C28.4804 29.064 28.468 29.0253 28.4555 28.9853C28.4333 28.9133 28.4115 28.8427 28.3924 28.7702C28.3666 28.6813 28.3431 28.592 28.3218 28.5036C28.3151 28.472 28.3084 28.4418 28.3013 28.4107C28.2991 28.3991 28.296 28.388 28.2946 28.3769C28.2786 28.3049 28.2649 28.2325 28.2524 28.1591C28.2453 28.1227 28.2395 28.0849 28.2342 28.0476C28.2275 28.0062 28.2222 27.9658 28.2178 27.9245L28.2044 27.8067C28.1978 27.7356 28.1929 27.6645 28.1898 27.5933C28.1889 27.5845 28.1893 27.5756 28.1889 27.5658C28.1875 27.5302 28.1871 27.4938 28.1866 27.4578C28.1751 26.2093 29.6022 25.4889 30.6284 26.1938C30.656 26.2133 30.6835 26.2316 30.7106 26.2511C30.7933 26.3093 30.8769 26.3685 30.9613 26.4289C31.0458 26.4893 31.1302 26.5511 31.2146 26.6138C31.256 26.6445 31.2991 26.6765 31.3418 26.7076C31.3844 26.7387 31.4275 26.7707 31.4698 26.8031C31.5129 26.8351 31.5555 26.868 31.5986 26.9C31.7275 26.9969 31.8569 27.0969 31.9866 27.1987C32.1164 27.2991 32.2458 27.4027 32.3751 27.508C32.4622 27.5778 32.5484 27.6489 32.6351 27.7209C32.6778 27.756 32.7213 27.792 32.7635 27.8289C32.8502 27.9009 32.9364 27.9742 33.0218 28.048C33.0653 28.0849 33.108 28.1213 33.1502 28.1591C33.1933 28.1965 33.2355 28.2342 33.2782 28.2716C33.3213 28.3089 33.3635 28.3467 33.4053 28.3845C33.4471 28.4222 33.4902 28.4609 33.5324 28.4987C33.616 28.5747 33.6986 28.6511 33.7813 28.7276C33.8649 28.8058 33.9489 28.8858 34.0311 28.9658C34.0729 29.0049 34.1138 29.0445 34.1542 29.0845C34.2355 29.164 34.316 29.244 34.396 29.3249C34.4586 29.3871 34.5209 29.4498 34.5809 29.5138C34.6178 29.5516 34.6538 29.5898 34.6889 29.6271C34.7098 29.6485 34.7298 29.6698 34.7493 29.6907C34.8195 29.7636 34.888 29.8378 34.9542 29.912C35.0004 29.9622 35.0466 30.0129 35.0911 30.0636C35.1444 30.1227 35.1978 30.1831 35.2493 30.2431C35.2538 30.2489 35.2586 30.2538 35.2631 30.2596C35.2991 30.3018 35.336 30.3449 35.3724 30.388C35.388 30.4058 35.4026 30.424 35.4178 30.4422C35.44 30.468 35.4618 30.4942 35.4831 30.52C35.5218 30.5662 35.56 30.6138 35.5973 30.6605C35.6418 30.7151 35.6849 30.7693 35.7275 30.8249C35.7386 30.8387 35.7506 30.8533 35.7609 30.8676C35.8093 30.9293 35.8564 30.9925 35.9031 31.0542C35.9115 31.0653 35.9209 31.0773 35.9293 31.0885C35.9755 31.1516 36.0213 31.2142 36.0662 31.2773C36.0702 31.2827 36.0742 31.2876 36.0778 31.2933C36.1209 31.3529 36.1622 31.4138 36.2031 31.4738C36.2084 31.4813 36.2146 31.4898 36.2191 31.4978C36.2666 31.5667 36.3129 31.6365 36.3578 31.7067C36.3644 31.7165 36.3702 31.7262 36.3764 31.7356C36.4106 31.7898 36.4453 31.8436 36.4786 31.8982C36.4889 31.9138 36.4986 31.9307 36.5075 31.9467C36.5453 32.0085 36.5818 32.0698 36.6178 32.1316C36.7373 32.3387 36.8466 32.5467 36.9449 32.7556C37.0431 32.9645 37.1298 33.1738 37.204 33.3827C37.2226 33.4351 37.2404 33.4867 37.2569 33.5396C37.308 33.6965 37.3515 33.8533 37.3871 34.0098C37.4351 34.2187 37.4684 34.4267 37.4866 34.6347C37.6835 36.8325 35.2653 37.1413 33.7062 36.3418V36.3422Z" fill="white"/>
</svg>
