<svg width="1073" height="267" viewBox="0 0 1073 267" fill="none" xmlns="http://www.w3.org/2000/svg">
<path d="M179.221 0.416278C171.641 -1.35372 167.001 2.83627 161.291 7.03627C137.931 24.2063 113.491 52.4663 102.241 79.2263C99.9209 84.7363 98.4309 90.5763 96.0109 96.0463C62.5909 90.7863 25.3409 99.8563 7.15091 130.896C-4.44909 150.686 -1.52909 176.796 12.9609 194.126C15.9009 197.646 19.3109 200.806 23.1809 203.476C24.5309 204.406 26.9809 205.566 29.6809 206.746C30.8909 207.136 32.0609 207.636 33.1809 208.246C33.1809 208.246 33.2009 208.256 33.2109 208.266C34.1109 208.766 34.9809 209.326 35.8109 209.966C37.8809 211.546 39.6709 213.556 41.0609 215.956C42.4509 218.356 43.2809 220.906 43.6209 223.486C43.6909 223.976 43.7309 224.466 43.7609 224.956C43.8109 225.786 43.8109 226.606 43.7609 227.426C43.7709 230.366 43.9009 233.196 44.5309 235.426C45.8609 240.146 47.8909 244.336 50.4609 247.966C62.5209 265.056 86.5409 270.126 106.761 262.666C120.201 257.696 149.881 239.706 132.451 223.586C120.601 212.626 109.781 229.656 99.6709 234.416C95.7109 236.286 90.8909 237.466 86.2909 237.216C86.2409 237.216 86.1809 237.216 86.1209 237.216C85.2409 237.166 84.3809 237.056 83.5309 236.886C79.8209 236.056 76.4509 233.736 74.4009 230.186C73.1109 227.956 72.5009 225.516 72.5209 223.116C72.5809 222.406 72.6509 221.676 72.6909 220.916C72.7509 220.106 72.7809 219.256 72.7609 218.366C73.2109 211.876 71.7909 205.176 68.2909 199.116C64.0609 191.786 57.5009 186.626 50.0809 184.046C50.0609 184.036 50.0309 184.026 50.0109 184.016C49.8909 183.966 49.7609 183.916 49.6409 183.876C49.6309 183.876 49.6109 183.876 49.6009 183.866C48.8009 183.556 48.0209 183.286 47.2509 183.006C47.2309 183.006 47.2209 183.006 47.2109 182.996C41.7609 180.726 36.9809 176.706 33.8009 171.196C28.0709 161.276 29.1209 149.316 35.5009 140.646C35.5009 140.646 35.5109 140.626 35.5209 140.626C36.6509 139.276 37.9009 138.006 39.2509 136.816C40.8609 135.396 42.5209 134.106 44.2209 132.936C44.2209 132.936 44.2309 132.926 44.2409 132.926C58.4809 123.136 75.5909 122.006 92.6109 125.196C93.7509 126.346 93.7209 137.846 94.1109 140.646C98.4409 171.776 117.341 214.966 147.411 228.606C166.451 237.246 192.261 232.336 202.931 213.236C215.081 191.466 203.021 166.966 188.741 149.436C183.111 142.526 176.631 136.396 169.691 130.806C162.761 125.216 155.361 120.166 147.921 115.426C154.191 106.636 164.911 99.0763 174.721 94.3463C184.901 89.4463 202.701 89.3163 202.091 74.4963C201.861 68.8063 198.691 63.6863 193.341 61.3563C188.071 59.0763 182.411 61.0263 177.241 62.6063C158.651 68.3063 142.311 78.7963 128.721 92.5963C135.531 72.5663 151.251 54.2163 166.971 40.1063C172.741 34.9263 180.671 30.0363 185.761 25.0363C193.861 17.0563 190.541 3.09627 179.251 0.466266L179.221 0.416278ZM175.861 181.656C176.411 182.816 176.891 183.976 177.301 185.136C177.401 185.426 177.501 185.716 177.591 186.006C177.871 186.876 178.111 187.746 178.311 188.616C178.581 189.776 178.761 190.936 178.861 192.086C179.951 204.296 166.521 206.016 157.851 201.576C147.761 196.406 138.561 182.296 133.631 172.376C133.451 172.006 133.261 171.636 133.081 171.256C132.711 170.496 132.331 169.716 131.961 168.916C131.771 168.516 131.591 168.116 131.401 167.706C131.061 166.956 130.731 166.206 130.411 165.426C130.371 165.326 130.331 165.226 130.291 165.126C130.131 164.736 129.981 164.346 129.821 163.956C129.821 163.936 129.811 163.906 129.801 163.896C129.671 163.556 129.551 163.216 129.421 162.886C129.341 162.666 129.261 162.446 129.181 162.226C129.111 162.026 129.041 161.826 128.981 161.626C128.951 161.536 128.921 161.446 128.891 161.356C128.821 161.136 128.751 160.926 128.681 160.706C128.561 160.306 128.441 159.916 128.331 159.506C128.191 159.016 128.061 158.516 127.941 158.026C127.901 157.846 127.871 157.686 127.831 157.506C127.821 157.446 127.801 157.376 127.791 157.316C127.701 156.916 127.621 156.516 127.561 156.106C127.521 155.906 127.491 155.696 127.461 155.486C127.421 155.256 127.391 155.026 127.371 154.806L127.301 154.156C127.261 153.766 127.241 153.366 127.221 152.976C127.221 152.926 127.221 152.876 127.221 152.826C127.221 152.626 127.211 152.426 127.211 152.226C127.141 145.286 135.081 141.286 140.781 145.206C140.931 145.316 141.091 145.416 141.241 145.526C141.701 145.846 142.161 146.176 142.631 146.516C143.101 146.856 143.571 147.196 144.041 147.546C144.271 147.716 144.511 147.896 144.751 148.066C144.991 148.236 145.231 148.416 145.461 148.596C145.701 148.776 145.941 148.956 146.181 149.136C146.901 149.676 147.611 150.226 148.331 150.796C149.051 151.356 149.771 151.926 150.491 152.516C150.981 152.906 151.451 153.296 151.931 153.696C152.171 153.896 152.411 154.096 152.641 154.296C153.121 154.696 153.601 155.106 154.081 155.516C154.321 155.716 154.561 155.926 154.791 156.136C155.031 156.346 155.261 156.556 155.501 156.756C155.741 156.956 155.971 157.176 156.211 157.386C156.451 157.596 156.681 157.806 156.921 158.016C157.381 158.436 157.841 158.866 158.301 159.286C158.761 159.716 159.231 160.166 159.691 160.606C159.921 160.826 160.151 161.046 160.371 161.266C160.821 161.706 161.271 162.156 161.711 162.606C162.061 162.956 162.401 163.306 162.741 163.656C162.941 163.866 163.141 164.076 163.341 164.286C163.461 164.406 163.571 164.526 163.681 164.636C164.071 165.046 164.451 165.456 164.821 165.866C165.081 166.146 165.331 166.426 165.581 166.706C165.881 167.036 166.171 167.366 166.461 167.706C166.491 167.736 166.511 167.766 166.541 167.796C166.741 168.026 166.941 168.266 167.151 168.506C167.241 168.606 167.321 168.706 167.401 168.806C167.521 168.946 167.641 169.096 167.761 169.236C167.971 169.496 168.191 169.756 168.401 170.016C168.651 170.316 168.891 170.626 169.121 170.926C169.181 171.006 169.251 171.086 169.311 171.166C169.581 171.506 169.841 171.856 170.101 172.206C170.151 172.266 170.201 172.336 170.251 172.396C170.511 172.746 170.761 173.096 171.011 173.446C171.031 173.476 171.051 173.506 171.071 173.536C171.311 173.866 171.541 174.206 171.771 174.536C171.801 174.576 171.831 174.626 171.861 174.666C172.121 175.046 172.381 175.436 172.631 175.826C172.671 175.886 172.701 175.936 172.731 175.986C172.921 176.286 173.111 176.586 173.301 176.886C173.361 176.976 173.411 177.066 173.461 177.156C173.671 177.496 173.871 177.836 174.071 178.186C174.731 179.336 175.341 180.496 175.891 181.656H175.861Z" fill="black"/>
<path d="M361.411 163.106C379.071 171.996 395.261 142.296 402.891 129.376C406.541 123.196 416.661 99.4064 419.731 96.8164C426.641 90.9764 437.731 95.6664 439.081 104.326C441.071 117.086 437.871 141.346 435.731 154.656C433.801 166.686 430.501 178.546 427.181 190.236C440.181 186.126 454.991 199.486 443.751 210.526C436.341 217.806 425.161 211.596 419.661 214.906C418.231 215.766 409.221 237.356 405.301 242.466C376.701 279.756 317.941 248.416 338.061 212.786C349.071 193.286 381.531 195.766 400.691 191.866L409.161 164.816C394.831 179.656 382.791 194.086 359.631 188.056C339.621 182.846 335.851 166.096 337.231 147.636C337.921 138.506 347.131 115.106 329.311 118.696C322.161 120.136 317.791 132.256 317.721 138.626C317.591 150.906 333.101 175.066 321.311 182.606C301.471 195.286 292.971 148.026 293.741 135.666C295.541 106.916 324.921 81.1664 351.431 100.496C373.061 116.266 359.111 141.566 361.391 163.096L361.411 163.106ZM391.181 217.176C385.361 217.506 344.651 222.176 361.621 232.456C374.881 240.486 388.781 231.306 391.181 217.176Z" fill="black"/>
<path d="M492.391 69.0864L544.421 142.066C548.301 143.376 554.101 141.026 557.611 143.136C561.561 145.516 570.151 164.306 575.611 167.806V142.376H563.621V69.0864H592.111V142.376H604.101V209.686L570.251 214.056L567.301 212.816L519.121 142.656C515.721 141.666 511.151 143.416 508.151 141.636C505.621 140.136 492.771 117.536 489.091 112.866C488.131 111.646 489.151 110.136 485.661 110.976V207.456L483.411 209.696H459.421L457.171 207.456V71.3364L459.421 69.0964H492.411L492.391 69.0864Z" fill="black"/>
<path d="M802.901 175.366C801.591 175.326 800.511 176.376 800.511 177.676V211.936C800.511 223.036 779.141 227.986 776.651 213.546C776.631 213.406 776.611 213.266 776.611 213.116L776.591 78.5565C776.591 77.4365 777.381 76.4765 778.481 76.2765C809.381 70.6065 851.341 63.7365 878.951 81.3065C907.141 99.2465 906.291 140.696 880.341 159.786C879.351 160.516 879.101 161.886 879.781 162.916C885.141 171.066 890.571 179.776 894.181 188.766C898.761 200.166 910.551 229.786 888.181 227.766C877.181 226.766 874.541 202.106 869.731 192.216C868.231 189.126 859.781 175.326 856.101 171.806C855.541 171.266 854.751 171.056 853.991 171.226C837.131 175.006 820.141 175.826 802.881 175.346L802.901 175.366ZM800.521 116.156C800.521 117.406 801.511 118.436 802.771 118.466C812.491 118.736 823.071 121.686 831.981 125.206C838.301 127.696 859.471 141.876 861.481 142.076C866.551 142.576 874.181 132.506 875.151 127.826C883.451 87.6865 828.371 93.4965 802.631 95.8265C801.441 95.9365 800.521 96.9365 800.521 98.1365V116.156ZM802.831 151.356H820.051C822.641 151.356 823.271 147.776 820.851 146.866C820.831 146.866 820.801 146.846 820.781 146.836C815.101 144.646 809.061 142.406 802.881 142.306C801.581 142.286 800.501 143.326 800.501 144.626V149.036C800.501 150.316 801.541 151.356 802.821 151.356H802.831Z" fill="black"/>
<path d="M673.081 134.897C694.751 128.457 721.801 141.017 722.631 165.517C723.971 205.077 672.761 209.747 657.341 178.287C648.061 182.367 638.001 215.987 630.641 222.687C623.891 228.827 611.881 224.587 610.341 216.067C609.031 208.837 626.431 179.137 631.381 171.837C634.031 167.927 648.391 151.627 648.781 150.307C650.131 145.737 648.481 139.197 649.111 134.187C651.481 115.517 658.211 96.5865 670.111 81.8465C689.991 57.2065 710.851 52.5065 725.821 84.5365C735.951 106.217 761.671 175.267 764.411 197.117C766.241 211.757 753.891 217.207 743.721 207.287C736.921 194.527 705.751 87.1965 699.321 87.0765C683.931 97.8865 675.741 116.577 673.091 134.907L673.081 134.897ZM696.701 173.426C706.671 163.396 685.401 152.306 676.211 158.976C673.521 168.286 690.071 180.096 696.701 173.426Z" fill="black"/>
<path d="M905.941 69.5664C907.031 68.5664 911.221 66.5664 912.611 66.3564C917.401 65.6364 935.981 75.7364 941.491 78.7764C957.991 87.8764 972.331 99.6065 987.191 111.026C996.061 104.386 1004.28 97.0264 1013.56 90.9064C1022.98 84.6864 1044.21 71.9664 1054.33 68.7664C1070.28 63.7164 1077.96 78.4664 1069 87.8764C1064.69 92.3964 1042.26 101.236 1034.55 105.856C1029.72 108.756 1003.85 126.346 1003.17 129.886C1017.55 154.536 1035.66 184.606 1014.05 211.056C1000.28 227.916 972.281 229.986 956.621 214.766C933.661 192.446 955.181 151.546 969.851 129.876C969.061 125.336 940.021 105.606 934.431 102.286C925.121 96.7664 889.141 84.9164 905.951 69.5664H905.941ZM987.921 149.866C984.801 147.536 977.201 164.746 976.161 167.276C970.661 180.606 962.811 204.476 987.101 200.636C1010.56 196.926 994.561 162.076 987.921 149.866Z" fill="black"/>
<path d="M275.741 69.0864V94.5164H250.251V142.386H259.251V223.906L261.501 226.146H313.231V250.076H232.261V144.626C229.831 141.246 225.411 142.476 221.761 142.386V69.0964H275.741V69.0864Z" fill="black"/>
</svg>
