<svg width="36" height="36" viewBox="0 0 36 36" fill="none" xmlns="http://www.w3.org/2000/svg">
<path d="M29.4417 20.211C28.682 19.2777 27.807 18.451 26.871 17.6964C25.935 16.942 24.937 16.26 23.9324 15.62C24.779 14.433 26.2254 13.4127 27.5497 12.7747C28.9244 12.1127 31.3267 12.0954 31.2447 10.096C31.2134 9.32769 30.7854 8.63669 30.0637 8.32302C29.3524 8.01469 28.588 8.27836 27.891 8.49202C25.3824 9.26169 23.1764 10.6774 21.342 12.54C22.262 9.83669 24.3837 7.35936 26.5044 5.45469C27.283 4.75536 28.354 4.09602 29.0404 3.42036C30.1344 2.34302 29.686 0.459356 28.1614 0.103356C27.138 -0.135644 26.5124 0.42969 25.7407 0.997356C22.588 3.31469 19.2887 7.12936 17.7707 10.7417C17.4577 11.4854 17.2557 12.2737 16.9297 13.0124H16.929C12.418 12.3027 7.38938 13.527 4.93404 17.717C3.36904 20.388 3.76271 23.9127 5.71838 26.2524C6.11471 26.7274 6.57604 27.1534 7.09804 27.5137C7.28071 27.6397 7.61104 27.7957 7.97471 27.9554C8.13738 28.0077 8.29571 28.076 8.44704 28.1584C8.44838 28.1594 8.44971 28.16 8.45104 28.161C8.57304 28.228 8.69038 28.304 8.80171 28.39C9.08104 28.604 9.32338 28.8747 9.51004 29.198C9.69638 29.521 9.80971 29.866 9.85571 30.214C9.86471 30.2797 9.87071 30.346 9.87438 30.412C9.88104 30.5237 9.88104 30.6347 9.87338 30.746C9.87504 31.1427 9.89271 31.5254 9.97671 31.8254C10.1564 32.4624 10.4297 33.0274 10.7764 33.518C12.4044 35.8244 15.647 36.5097 18.375 35.5027C20.189 34.832 24.1957 32.404 21.8424 30.2274C20.2434 28.7477 18.7824 31.0464 17.4174 31.689C16.8824 31.941 16.2317 32.101 15.6117 32.0664C15.6047 32.0664 15.5964 32.0664 15.5887 32.0654C15.4704 32.058 15.3537 32.0437 15.2394 32.021C14.738 31.9097 14.2834 31.5964 14.0064 31.1167C13.8324 30.8154 13.7504 30.487 13.7524 30.162C13.76 30.0667 13.7697 29.968 13.776 29.8647C13.7834 29.755 13.788 29.6407 13.7854 29.5204C13.8457 28.6437 13.654 27.7397 13.1814 26.9217C12.6097 25.9317 11.7244 25.2357 10.723 24.887C10.7197 24.8857 10.7167 24.8844 10.7134 24.883C10.6967 24.8767 10.68 24.87 10.664 24.864C10.662 24.8634 10.6604 24.863 10.659 24.862C10.551 24.8207 10.4457 24.7834 10.3424 24.746C10.3397 24.746 10.3387 24.745 10.3374 24.744C9.60104 24.4374 8.95638 23.8954 8.52704 23.1514C7.75404 21.8127 7.89571 20.1974 8.75704 19.0277C8.75804 19.0264 8.75871 19.025 8.76004 19.0244C8.91271 18.8424 9.08104 18.6704 9.26371 18.5094C9.48138 18.317 9.70471 18.143 9.93404 17.9857C9.93404 17.9847 9.93538 17.984 9.93638 17.9844C11.858 16.6627 14.1684 16.5097 16.4657 16.941C16.619 17.0967 16.6164 18.6487 16.6684 19.0257C17.252 23.2274 19.804 29.0567 23.863 30.8987C26.4327 32.0644 29.9174 31.402 31.357 28.8237C32.9964 25.885 31.3694 22.578 29.4424 20.2117L29.4417 20.211ZM25.2797 27.2567C23.918 26.5584 22.6764 24.654 22.011 23.315C21.9867 23.2657 21.9614 23.215 21.9364 23.1637C21.8864 23.0617 21.835 22.9564 21.7847 22.848C21.7594 22.7944 21.7344 22.7397 21.7097 22.6847C21.6634 22.5837 21.619 22.4817 21.5757 22.3774C21.5704 22.3637 21.5647 22.35 21.559 22.3374C21.5377 22.2854 21.517 22.2324 21.496 22.1794C21.4954 22.1767 21.494 22.1734 21.4927 22.1707C21.4754 22.1254 21.4587 22.0797 21.4417 22.0337C21.4304 22.004 21.42 21.974 21.4097 21.9447C21.4007 21.9177 21.391 21.8904 21.382 21.8634C21.3777 21.8514 21.3737 21.8394 21.37 21.827C21.3604 21.798 21.351 21.769 21.3417 21.739C21.325 21.685 21.3087 21.632 21.2944 21.5777C21.275 21.511 21.2574 21.444 21.2414 21.3777C21.2364 21.354 21.2314 21.3314 21.226 21.308C21.2244 21.2994 21.222 21.291 21.221 21.2827C21.209 21.2287 21.1987 21.1744 21.1894 21.1194C21.184 21.092 21.1797 21.0637 21.1757 21.0357C21.1707 21.0047 21.1667 20.9744 21.1634 20.9434L21.1534 20.855C21.1484 20.8017 21.1447 20.7484 21.1424 20.695C21.1417 20.6884 21.142 20.6817 21.1417 20.6744C21.1407 20.6477 21.1404 20.6204 21.14 20.5934C21.1314 19.657 22.2017 19.1167 22.9714 19.6454C22.992 19.66 23.0127 19.6737 23.033 19.6884C23.095 19.732 23.1577 19.7764 23.221 19.8217C23.2844 19.867 23.3477 19.9134 23.411 19.9604C23.442 19.9834 23.4744 20.0074 23.5064 20.0307C23.5384 20.054 23.5707 20.078 23.6024 20.1024C23.6347 20.1264 23.6667 20.151 23.699 20.175C23.7957 20.2477 23.8927 20.3227 23.99 20.399C24.0874 20.4744 24.1844 20.552 24.2814 20.631C24.3467 20.6834 24.4114 20.7367 24.4764 20.7907C24.5084 20.817 24.541 20.844 24.5727 20.8717C24.6377 20.9257 24.7024 20.9807 24.7664 21.036C24.799 21.0637 24.831 21.091 24.8627 21.1194C24.895 21.1474 24.9267 21.1757 24.9587 21.2037C24.991 21.2317 25.0227 21.26 25.054 21.2884C25.0854 21.3167 25.1177 21.3457 25.1494 21.374C25.212 21.431 25.274 21.4884 25.336 21.5457C25.3987 21.6044 25.4617 21.6644 25.5234 21.7244C25.5547 21.7537 25.5854 21.7834 25.6157 21.8134C25.6767 21.873 25.737 21.933 25.797 21.9937C25.844 22.0404 25.8907 22.0874 25.9357 22.1354C25.9634 22.1637 25.9904 22.1924 26.0167 22.2204C26.0324 22.2364 26.0474 22.2524 26.062 22.268C26.1147 22.3227 26.166 22.3784 26.2157 22.434C26.2504 22.4717 26.285 22.5097 26.3184 22.5477C26.3584 22.592 26.3984 22.6374 26.437 22.6824C26.4404 22.6867 26.444 22.6904 26.4474 22.6947C26.4744 22.7264 26.502 22.7587 26.5294 22.791C26.541 22.8044 26.552 22.818 26.5634 22.8317C26.58 22.851 26.5964 22.8707 26.6124 22.89C26.6414 22.9247 26.67 22.9604 26.698 22.9954C26.7314 23.0364 26.7637 23.077 26.7957 23.1187C26.804 23.129 26.813 23.14 26.8207 23.1507C26.857 23.197 26.8924 23.2444 26.9274 23.2907C26.9337 23.299 26.9407 23.308 26.947 23.3164C26.9817 23.3637 27.016 23.4107 27.0497 23.458C27.0527 23.462 27.0557 23.4657 27.0584 23.47C27.0907 23.5147 27.1217 23.5604 27.1524 23.6054C27.1564 23.611 27.161 23.6174 27.1644 23.6234C27.2 23.675 27.2347 23.7274 27.2684 23.78C27.2734 23.7874 27.2777 23.7947 27.2824 23.8017C27.308 23.8424 27.334 23.8827 27.359 23.9237C27.3667 23.9354 27.374 23.948 27.3807 23.96C27.409 24.0064 27.4364 24.0524 27.4634 24.0987C27.553 24.254 27.635 24.41 27.7087 24.5667C27.7824 24.7234 27.8474 24.8804 27.903 25.037C27.917 25.0764 27.9304 25.115 27.9427 25.1547C27.981 25.2724 28.0137 25.39 28.0404 25.5074C28.0764 25.664 28.1014 25.82 28.115 25.976C28.2627 27.6244 26.449 27.856 25.2797 27.2564V27.2567Z" fill="#FFA994"/>
</svg>
