<?xml version="1.0" encoding="UTF-8"?>
<svg id="Layer_1" xmlns="http://www.w3.org/2000/svg" version="1.1" viewBox="0 0 1080 1080">
  <!-- Generator: Adobe Illustrator 29.5.1, SVG Export Plug-In . SVG Version: 2.1.0 Build 141)  -->
  <path d="M883.25,606.33c-22.79-28-49.04-52.8-77.12-75.44-28.08-22.63-58.02-43.09-88.16-62.29,25.4-35.61,68.79-66.22,108.52-85.36,41.24-19.86,113.31-20.38,110.85-80.36-.94-23.05-13.78-43.78-35.43-53.19-21.34-9.25-44.27-1.34-65.18,5.07-75.26,23.09-141.44,65.56-196.47,121.44,27.6-81.1,91.25-155.42,154.87-212.56,23.36-20.98,55.49-40.76,76.08-61.03,32.82-32.32,19.37-88.83-26.37-99.51-30.7-7.17-49.47,9.79-72.62,26.82-94.58,69.52-193.56,183.96-239.1,292.33-9.39,22.31-15.45,45.96-25.23,68.12h-.02c-135.33-21.29-286.19,15.44-359.85,141.14-46.95,80.13-35.14,185.87,23.53,256.06,11.89,14.25,25.73,27.03,41.39,37.84,5.48,3.78,15.39,8.46,26.3,13.25,4.88,1.57,9.63,3.62,14.17,6.09.04.03.08.05.12.08,3.66,2.01,7.18,4.29,10.52,6.87,8.38,6.42,15.65,14.54,21.25,24.24,5.59,9.69,8.99,20.04,10.37,30.48.27,1.97.45,3.96.56,5.94.2,3.35.2,6.68-.03,10.02.05,11.9.58,23.38,3.1,32.38,5.39,19.11,13.59,36.06,23.99,50.78,48.84,69.19,146.12,89.75,227.96,59.54,54.42-20.12,174.62-92.96,104.02-158.26-47.97-44.39-91.8,24.57-132.75,43.85-16.05,7.56-35.57,12.36-54.17,11.32-.21,0-.46,0-.69-.03-3.55-.22-7.05-.65-10.48-1.33-15.04-3.34-28.68-12.74-36.99-27.13-5.22-9.04-7.68-18.89-7.62-28.64.23-2.86.52-5.82.71-8.92.22-3.29.36-6.72.28-10.33,1.81-26.3-3.94-53.42-18.12-77.96-17.15-29.7-43.71-50.58-73.75-61.04-.1-.04-.19-.08-.29-.12-.5-.19-1-.39-1.48-.57-.06-.02-.11-.03-.15-.06-3.24-1.24-6.4-2.36-9.5-3.48-.08,0-.11-.03-.15-.06-22.09-9.2-41.43-25.46-54.31-47.78-23.19-40.16-18.94-88.62,6.9-123.71.03-.04.05-.08.09-.1,4.58-5.46,9.63-10.62,15.11-15.45,6.53-5.77,13.23-10.99,20.11-15.71,0-.03.04-.05.07-.04,57.65-39.65,126.96-44.24,195.88-31.3,4.6,4.67,4.52,51.23,6.08,62.54,17.51,126.05,94.07,300.93,215.84,356.19,77.09,34.97,181.63,15.1,224.82-62.25,49.18-88.16.37-187.37-57.44-258.36ZM758.39,817.7c-40.85-20.95-78.1-78.08-98.06-118.25-.73-1.48-1.49-3-2.24-4.54-1.5-3.06-3.04-6.22-4.55-9.47-.76-1.61-1.51-3.25-2.25-4.9-1.39-3.03-2.72-6.09-4.02-9.22-.16-.41-.33-.82-.5-1.2-.64-1.56-1.26-3.15-1.89-4.74-.02-.08-.06-.18-.1-.26-.52-1.36-1.02-2.73-1.53-4.11-.34-.89-.65-1.79-.96-2.67-.27-.81-.56-1.63-.83-2.44-.13-.36-.25-.72-.36-1.09-.29-.87-.57-1.74-.85-2.64-.5-1.62-.99-3.21-1.42-4.84-.58-2-1.11-4.01-1.59-6-.15-.71-.3-1.39-.46-2.09-.05-.26-.12-.51-.15-.76-.36-1.62-.67-3.25-.95-4.9-.16-.82-.29-1.67-.41-2.51-.15-.93-.27-1.84-.37-2.77l-.3-2.65c-.15-1.6-.26-3.2-.33-4.8-.02-.2-.01-.4-.02-.62-.03-.8-.04-1.62-.05-2.43-.26-28.09,31.85-44.3,54.94-28.44.62.44,1.24.85,1.85,1.29,1.86,1.31,3.74,2.64,5.64,4,1.9,1.36,3.8,2.75,5.7,4.16.93.69,1.9,1.41,2.86,2.11.96.7,1.93,1.42,2.88,2.15.97.72,1.93,1.46,2.9,2.18,2.9,2.18,5.81,4.43,8.73,6.72,2.92,2.26,5.83,4.59,8.74,6.96,1.96,1.57,3.9,3.17,5.85,4.79.96.79,1.94,1.6,2.89,2.43,1.95,1.62,3.89,3.27,5.81,4.93.98.83,1.94,1.65,2.89,2.5.97.84,1.92,1.69,2.88,2.53.97.84,1.92,1.69,2.86,2.54s1.91,1.72,2.86,2.57c1.88,1.71,3.74,3.43,5.6,5.15,1.88,1.76,3.77,3.56,5.62,5.36.94.88,1.86,1.77,2.77,2.67,1.83,1.79,3.64,3.59,5.44,5.41,1.41,1.4,2.81,2.81,4.16,4.25.83.85,1.64,1.71,2.43,2.55.47.48.92.96,1.36,1.43,1.58,1.64,3.12,3.31,4.61,4.98,1.04,1.13,2.08,2.27,3.08,3.41,1.2,1.33,2.4,2.69,3.56,4.04.1.13.21.24.31.37.81.95,1.64,1.92,2.46,2.89.35.4.68.81,1.02,1.22.5.58.99,1.17,1.47,1.75.87,1.04,1.73,2.11,2.57,3.16,1,1.23,1.97,2.45,2.93,3.7.25.31.52.64.75.96,1.09,1.39,2.15,2.81,3.2,4.2.19.25.4.52.59.77,1.04,1.42,2.07,2.83,3.08,4.25.09.12.18.23.26.36.97,1.34,1.9,2.71,2.82,4.06.12.17.26.36.36.54,1.07,1.55,2.11,3.12,3.12,4.7.15.22.28.44.42.65.77,1.22,1.55,2.43,2.3,3.66.23.35.45.73.65,1.09.85,1.39,1.67,2.77,2.48,4.16,2.69,4.66,5.15,9.34,7.36,14.04,2.21,4.7,4.16,9.41,5.83,14.11.42,1.18.82,2.34,1.19,3.53,1.15,3.53,2.13,7.06,2.93,10.58,1.08,4.7,1.83,9.38,2.24,14.06,4.43,49.45-49.98,56.4-85.06,38.41Z"/>
</svg>