<svg width="30" height="36" viewBox="0 0 30 36" fill="none" xmlns="http://www.w3.org/2000/svg">
<path d="M26.4417 20.211C25.682 19.2777 24.807 18.451 23.871 17.6963C22.935 16.942 21.937 16.26 20.9324 15.62C21.779 14.433 23.2254 13.4127 24.5497 12.7747C25.9244 12.1127 28.3267 12.0953 28.2447 10.096C28.2134 9.32766 27.7854 8.63666 27.0637 8.32299C26.3524 8.01466 25.588 8.27833 24.891 8.49199C22.3824 9.26166 20.1764 10.6773 18.342 12.54C19.262 9.83666 21.3837 7.35933 23.5044 5.45466C24.283 4.75533 25.354 4.09599 26.0404 3.42033C27.1344 2.34299 26.686 0.459326 25.1614 0.103326C24.138 -0.135674 23.5124 0.429659 22.7407 0.997326C19.588 3.31466 16.2887 7.12933 14.7707 10.7417C14.4577 11.4853 14.2557 12.2737 13.9297 13.0123H13.929C9.41804 12.3027 4.38938 13.527 1.93404 17.717C0.369045 20.388 0.762711 23.9127 2.71838 26.2523C3.11471 26.7273 3.57604 27.1533 4.09804 27.5137C4.28071 27.6397 4.61104 27.7957 4.97471 27.9553C5.13738 28.0077 5.29571 28.076 5.44704 28.1583C5.44838 28.1593 5.44971 28.16 5.45104 28.161C5.57304 28.228 5.69038 28.304 5.80171 28.39C6.08104 28.604 6.32338 28.8747 6.51004 29.198C6.69638 29.521 6.80971 29.866 6.85571 30.214C6.86471 30.2797 6.87071 30.346 6.87438 30.412C6.88104 30.5237 6.88104 30.6347 6.87338 30.746C6.87504 31.1427 6.89271 31.5253 6.97671 31.8253C7.15638 32.4623 7.42971 33.0273 7.77638 33.518C9.40438 35.8243 12.647 36.5097 15.375 35.5027C17.189 34.832 21.1957 32.404 18.8424 30.2273C17.2434 28.7477 15.7824 31.0463 14.4174 31.689C13.8824 31.941 13.2317 32.101 12.6117 32.0663C12.6047 32.0663 12.5964 32.0663 12.5887 32.0653C12.4704 32.058 12.3537 32.0437 12.2394 32.021C11.738 31.9097 11.2834 31.5963 11.0064 31.1167C10.8324 30.8153 10.7504 30.487 10.7524 30.162C10.76 30.0667 10.7697 29.968 10.776 29.8647C10.7834 29.755 10.788 29.6407 10.7854 29.5203C10.8457 28.6437 10.654 27.7397 10.1814 26.9217C9.60971 25.9317 8.72438 25.2357 7.72304 24.887C7.71971 24.8857 7.71671 24.8843 7.71338 24.883C7.69671 24.8767 7.68005 24.87 7.66405 24.864C7.66205 24.8633 7.66038 24.863 7.65904 24.862C7.55104 24.8207 7.44571 24.7833 7.34238 24.746C7.33971 24.746 7.33871 24.745 7.33738 24.744C6.60104 24.4373 5.95638 23.8953 5.52704 23.1513C4.75404 21.8127 4.89571 20.1973 5.75704 19.0277C5.75804 19.0263 5.75871 19.025 5.76004 19.0243C5.91271 18.8423 6.08104 18.6703 6.26371 18.5093C6.48138 18.317 6.70471 18.143 6.93404 17.9857C6.93404 17.9847 6.93538 17.984 6.93638 17.9843C8.85804 16.6627 11.1684 16.5097 13.4657 16.941C13.619 17.0967 13.6164 18.6487 13.6684 19.0257C14.252 23.2273 16.804 29.0567 20.863 30.8987C23.4327 32.0643 26.9174 31.402 28.357 28.8237C29.9964 25.885 28.3694 22.578 26.4424 20.2117L26.4417 20.211ZM22.2797 27.2567C20.918 26.5583 19.6764 24.654 19.011 23.315C18.9867 23.2657 18.9614 23.215 18.9364 23.1637C18.8864 23.0617 18.835 22.9563 18.7847 22.848C18.7594 22.7943 18.7344 22.7397 18.7097 22.6847C18.6634 22.5837 18.619 22.4817 18.5757 22.3773C18.5704 22.3637 18.5647 22.35 18.559 22.3373C18.5377 22.2853 18.517 22.2323 18.496 22.1793C18.4954 22.1767 18.494 22.1733 18.4927 22.1707C18.4754 22.1253 18.4587 22.0797 18.4417 22.0337C18.4304 22.004 18.42 21.974 18.4097 21.9447C18.4007 21.9177 18.391 21.8903 18.382 21.8633C18.3777 21.8513 18.3737 21.8393 18.37 21.827C18.3604 21.798 18.351 21.769 18.3417 21.739C18.325 21.685 18.3087 21.632 18.2944 21.5777C18.275 21.511 18.2574 21.444 18.2414 21.3777C18.2364 21.354 18.2314 21.3313 18.226 21.308C18.2244 21.2993 18.222 21.291 18.221 21.2827C18.209 21.2287 18.1987 21.1743 18.1894 21.1193C18.184 21.092 18.1797 21.0637 18.1757 21.0357C18.1707 21.0047 18.1667 20.9743 18.1634 20.9433L18.1534 20.855C18.1484 20.8017 18.1447 20.7483 18.1424 20.695C18.1417 20.6883 18.142 20.6817 18.1417 20.6743C18.1407 20.6477 18.1404 20.6203 18.14 20.5933C18.1314 19.657 19.2017 19.1167 19.9714 19.6453C19.992 19.66 20.0127 19.6737 20.033 19.6883C20.095 19.732 20.1577 19.7763 20.221 19.8217C20.2844 19.867 20.3477 19.9133 20.411 19.9603C20.442 19.9833 20.4744 20.0073 20.5064 20.0307C20.5384 20.054 20.5707 20.078 20.6024 20.1023C20.6347 20.1263 20.6667 20.151 20.699 20.175C20.7957 20.2477 20.8927 20.3227 20.99 20.399C21.0874 20.4743 21.1844 20.552 21.2814 20.631C21.3467 20.6833 21.4114 20.7367 21.4764 20.7907C21.5084 20.817 21.541 20.844 21.5727 20.8717C21.6377 20.9257 21.7024 20.9807 21.7664 21.036C21.799 21.0637 21.831 21.091 21.8627 21.1193C21.895 21.1473 21.9267 21.1757 21.9587 21.2037C21.991 21.2317 22.0227 21.26 22.054 21.2883C22.0854 21.3167 22.1177 21.3457 22.1494 21.374C22.212 21.431 22.274 21.4883 22.336 21.5457C22.3987 21.6043 22.4617 21.6643 22.5234 21.7243C22.5547 21.7537 22.5854 21.7833 22.6157 21.8133C22.6767 21.873 22.737 21.933 22.797 21.9937C22.844 22.0403 22.8907 22.0873 22.9357 22.1353C22.9634 22.1637 22.9904 22.1923 23.0167 22.2203C23.0324 22.2363 23.0474 22.2523 23.062 22.268C23.1147 22.3227 23.166 22.3783 23.2157 22.434C23.2504 22.4717 23.285 22.5097 23.3184 22.5477C23.3584 22.592 23.3984 22.6373 23.437 22.6823C23.4404 22.6867 23.444 22.6903 23.4474 22.6947C23.4744 22.7263 23.502 22.7587 23.5294 22.791C23.541 22.8043 23.552 22.818 23.5634 22.8317C23.58 22.851 23.5964 22.8707 23.6124 22.89C23.6414 22.9247 23.67 22.9603 23.698 22.9953C23.7314 23.0363 23.7637 23.077 23.7957 23.1187C23.804 23.129 23.813 23.14 23.8207 23.1507C23.857 23.197 23.8924 23.2443 23.9274 23.2907C23.9337 23.299 23.9407 23.308 23.947 23.3163C23.9817 23.3637 24.016 23.4107 24.0497 23.458C24.0527 23.462 24.0557 23.4657 24.0584 23.47C24.0907 23.5147 24.1217 23.5603 24.1524 23.6053C24.1564 23.611 24.161 23.6173 24.1644 23.6233C24.2 23.675 24.2347 23.7273 24.2684 23.78C24.2734 23.7873 24.2777 23.7947 24.2824 23.8017C24.308 23.8423 24.334 23.8827 24.359 23.9237C24.3667 23.9353 24.374 23.948 24.3807 23.96C24.409 24.0063 24.4364 24.0523 24.4634 24.0987C24.553 24.254 24.635 24.41 24.7087 24.5667C24.7824 24.7233 24.8474 24.8803 24.903 25.037C24.917 25.0763 24.9304 25.115 24.9427 25.1547C24.981 25.2723 25.0137 25.39 25.0404 25.5073C25.0764 25.664 25.1014 25.82 25.115 25.976C25.2627 27.6243 23.449 27.856 22.2797 27.2563V27.2567Z" fill="#B693EF"/>
</svg>
